<?xml version="1.0" standalone="no"?>
<!DOCTYPE svg PUBLIC "-//W3C//DTD SVG 20010904//EN"
 "http://www.w3.org/TR/2001/REC-SVG-20010904/DTD/svg10.dtd">
<svg version="1.0" xmlns="http://www.w3.org/2000/svg"
 width="2404.000000pt" height="2404.000000pt" viewBox="0 0 2404.000000 2404.000000"
 preserveAspectRatio="xMidYMid meet">
<metadata>
Created by potrace 1.11, written by Peter Selinger 2001-2013
</metadata>
<g transform="translate(0.000000,2404.000000) scale(0.100000,-0.100000)"
fill="#000000" stroke="none">
<path d="M18638 24035 c-2 -2 -48 -6 -103 -9 -55 -3 -120 -8 -145 -11 -185
-20 -231 -25 -256 -30 -12 -2 -48 -7 -80 -10 -33 -4 -68 -9 -79 -11 -11 -3
-36 -7 -55 -10 -19 -3 -46 -7 -60 -10 -14 -3 -59 -11 -100 -19 -67 -12 -191
-38 -245 -51 -11 -3 -31 -7 -44 -10 -101 -21 -557 -151 -606 -174 -11 -5 -49
-19 -85 -31 -282 -95 -772 -316 -1045 -471 -44 -25 -96 -54 -115 -65 -172 -97
-468 -291 -684 -447 -120 -88 -442 -338 -456 -355 -3 -4 -32 -29 -65 -56 -33
-28 -65 -54 -71 -60 -6 -5 -44 -39 -84 -75 -245 -217 -761 -733 -930 -930 -12
-14 -40 -46 -63 -71 -23 -25 -64 -72 -92 -104 -27 -32 -55 -63 -60 -69 -126
-138 -539 -672 -704 -911 -123 -179 -291 -435 -291 -444 0 -5 -4 -11 -8 -13
-18 -8 -282 -455 -429 -728 -126 -233 -341 -675 -424 -870 -17 -41 -39 -93
-49 -115 -27 -60 -143 -348 -180 -448 -18 -49 -38 -91 -44 -93 -6 -2 -481 -5
-1056 -7 -575 -1 -1058 -6 -1075 -10 -16 -5 -59 -15 -94 -23 -275 -63 -535
-267 -683 -534 -49 -89 -99 -247 -114 -360 -10 -72 -11 -211 -2 -266 5 -31 10
-69 13 -83 39 -262 224 -539 467 -698 79 -51 220 -115 283 -129 11 -2 47 -12
80 -21 53 -14 152 -17 828 -20 716 -4 768 -5 763 -21 -3 -9 -10 -35 -15 -57
-5 -22 -71 -283 -146 -580 -75 -297 -138 -548 -140 -558 -2 -10 -7 -27 -10
-37 -3 -10 -8 -27 -10 -37 -2 -10 -58 -236 -125 -503 -67 -267 -123 -492 -125
-500 -2 -8 -15 -61 -29 -116 -15 -56 -28 -110 -30 -120 -2 -11 -22 -89 -44
-174 -22 -85 -42 -166 -45 -180 -2 -14 -26 -106 -51 -205 -26 -99 -49 -189
-51 -200 -3 -11 -52 -209 -111 -440 -58 -231 -107 -427 -109 -435 -2 -8 -47
-188 -100 -400 -53 -212 -98 -392 -100 -400 -2 -8 -14 -53 -25 -100 -12 -47
-23 -92 -25 -100 -2 -8 -65 -258 -140 -555 -75 -297 -148 -585 -161 -640 -14
-55 -26 -107 -28 -115 -92 -362 -219 -871 -222 -887 -2 -12 -9 -34 -14 -48 -5
-14 -7 -25 -5 -25 2 0 0 -11 -5 -25 -5 -14 -12 -36 -14 -48 -2 -12 -104 -418
-226 -902 -122 -484 -223 -887 -225 -895 -6 -30 -95 -386 -105 -420 -5 -19
-26 -100 -45 -180 -20 -80 -52 -199 -72 -265 -19 -66 -39 -133 -43 -150 -16
-62 -148 -442 -170 -490 -5 -11 -29 -69 -53 -130 -59 -146 -116 -272 -208
-457 -115 -235 -293 -545 -388 -678 -17 -25 -43 -63 -58 -85 -14 -22 -29 -42
-32 -45 -3 -3 -22 -25 -42 -50 -77 -95 -193 -215 -272 -283 -27 -23 -61 -53
-76 -66 -85 -76 -352 -232 -501 -292 -84 -33 -262 -89 -286 -89 -11 0 -24 -3
-28 -7 -3 -4 -12 -8 -19 -9 -7 -1 -57 -9 -112 -19 -165 -28 -199 -30 -500 -30
-357 0 -479 13 -636 65 -137 46 -211 129 -239 264 -12 59 -9 95 16 231 31 166
124 378 224 510 36 48 179 183 225 212 28 18 55 36 60 41 6 4 60 32 120 61
176 85 207 102 271 147 149 105 261 238 344 407 45 93 99 257 115 347 32 192
30 278 -17 504 -94 465 -408 866 -843 1076 -228 111 -470 165 -735 165 -177 0
-356 -29 -505 -82 -38 -13 -77 -26 -85 -28 -8 -2 -44 -17 -80 -34 -292 -137
-492 -313 -713 -629 -20 -28 -37 -54 -37 -57 0 -3 -11 -22 -23 -43 -87 -137
-209 -404 -280 -607 -41 -118 -119 -406 -130 -480 -3 -16 -8 -41 -11 -55 -8
-34 -13 -68 -30 -190 -32 -228 -39 -330 -40 -570 -1 -248 6 -360 35 -555 19
-123 20 -130 24 -145 2 -8 6 -31 9 -50 32 -205 157 -572 277 -811 126 -253
299 -505 484 -708 79 -87 174 -180 265 -261 47 -41 87 -78 90 -81 38 -42 324
-237 465 -316 95 -53 300 -153 314 -153 4 0 22 -7 39 -16 79 -39 453 -152 557
-167 17 -3 71 -12 120 -21 109 -18 167 -27 220 -32 103 -9 256 -18 315 -18 96
0 376 24 460 39 8 1 40 6 70 11 30 4 57 8 60 9 41 10 71 16 100 20 69 11 397
95 500 129 118 38 315 109 375 136 159 70 226 101 345 160 74 37 159 81 188
99 29 17 55 31 56 31 15 0 354 218 506 325 138 97 380 288 496 390 12 11 53
47 90 80 216 189 617 591 891 891 118 130 282 317 358 409 28 33 53 62 56 65
3 3 74 91 158 195 83 105 164 206 180 225 48 60 264 350 350 470 46 63 89 124
97 135 186 258 665 1004 770 1200 6 11 22 39 37 62 15 24 27 45 27 47 0 2 23
44 51 93 58 99 250 449 326 593 28 52 69 129 91 171 208 390 547 1098 732
1529 50 118 95 222 100 231 45 88 412 1046 425 1112 2 9 7 22 10 27 3 5 8 18
10 27 2 10 21 70 43 133 41 120 53 158 121 380 23 74 49 158 57 185 100 325
179 581 194 630 10 33 26 85 35 115 9 30 37 120 62 200 49 156 65 212 65 220
0 3 5 16 10 30 10 27 97 305 103 330 2 8 10 35 18 60 16 46 39 121 62 200 7
25 27 90 45 145 17 55 33 107 35 115 2 8 17 58 33 110 17 52 53 172 82 265 28
94 55 181 60 195 5 14 23 72 40 130 18 58 35 116 40 130 5 14 22 70 39 125 17
55 108 350 202 655 94 305 174 569 179 585 4 17 36 120 70 230 34 110 70 227
80 260 10 33 37 121 60 195 23 74 55 178 70 230 52 174 108 352 112 355 2 3
530 6 1173 8 1048 3 1177 5 1237 20 225 56 383 142 532 291 82 82 94 97 148
180 109 169 169 376 169 583 0 102 -7 156 -33 258 -48 193 -133 346 -271 488
-61 63 -186 164 -217 175 -8 3 -22 10 -30 17 -23 18 -155 74 -202 86 -83 21
-183 41 -223 44 -22 2 -404 4 -848 4 -779 1 -808 2 -803 19 4 10 18 68 32 128
14 60 29 125 34 144 5 19 11 46 14 60 13 66 158 610 176 660 5 14 18 59 30
100 118 410 385 1175 502 1440 12 29 18 42 53 130 15 36 38 88 51 117 13 28
24 54 24 56 0 10 165 364 191 412 10 17 34 61 54 99 121 226 326 488 526 671
55 51 186 155 194 155 4 0 13 7 22 15 22 22 216 136 298 175 105 49 257 105
370 136 22 6 63 15 108 24 27 5 52 12 56 14 4 3 29 7 56 11 28 3 94 12 148 19
104 13 611 15 702 2 299 -43 420 -100 477 -225 32 -70 36 -125 17 -236 -77
-450 -288 -745 -655 -915 -205 -96 -300 -158 -406 -264 -71 -72 -155 -190
-201 -281 -25 -51 -92 -242 -101 -287 -2 -12 -9 -52 -16 -88 -29 -158 2 -414
77 -630 33 -97 104 -249 143 -306 16 -25 30 -47 30 -50 0 -11 125 -169 182
-230 34 -36 98 -95 142 -132 45 -37 83 -69 86 -72 10 -11 166 -107 218 -133
150 -78 357 -142 522 -162 30 -4 66 -9 80 -11 33 -5 230 -6 255 -1 11 3 43 8
70 11 93 13 110 17 207 41 454 116 793 385 1052 835 43 74 176 349 176 363 0
7 4 17 8 22 12 14 95 243 125 345 28 94 82 315 91 370 3 19 8 46 11 60 14 66
21 114 35 230 6 52 13 113 15 134 22 184 22 570 0 741 -2 17 -6 57 -10 90 -8
77 -10 92 -30 200 -9 50 -18 101 -20 115 -12 66 -70 277 -106 385 -76 226
-183 456 -302 650 -21 34 -151 229 -164 245 -6 8 -33 42 -59 75 -149 188 -338
378 -540 543 -140 116 -360 256 -544 348 -362 180 -695 275 -1165 330 -58 6
-401 14 -407 9z"/>
</g>
</svg>
